<svg width="99" height="66" viewBox="0 0 99 66" fill="none" xmlns="http://www.w3.org/2000/svg">
<path d="M23.715 50.5C23.715 52.9 23.375 54.9 22.695 56.5C22.055 58.14 21.215 59.52 20.175 60.64C19.175 61.76 18.035 62.68 16.755 63.4C15.515 64.12 14.295 64.78 13.095 65.38L10.275 60.64C11.835 59.88 13.035 59.06 13.875 58.18C14.755 57.34 15.395 56.5 15.795 55.66C16.195 54.86 16.415 54.08 16.455 53.32C16.535 52.56 16.575 51.86 16.575 51.22V11.38H23.715V50.5ZM54.4223 19.54C53.4623 18.5 52.4423 17.72 51.3623 17.2C50.3223 16.64 49.1023 16.36 47.7023 16.36C45.9823 16.36 44.5223 16.76 43.3223 17.56C42.1623 18.32 41.2223 19.4 40.5023 20.8C39.7823 22.16 39.2623 23.76 38.9423 25.6C38.6223 27.44 38.4623 29.42 38.4623 31.54C38.4623 33.66 38.6023 35.64 38.8823 37.48C39.2023 39.32 39.7223 40.94 40.4423 42.34C41.2023 43.74 42.2023 44.84 43.4423 45.64C44.7223 46.44 46.3223 46.84 48.2423 46.84C49.1623 46.84 50.0423 46.76 50.8823 46.6C51.7223 46.44 52.4823 46.28 53.1623 46.12C53.8823 45.92 54.4623 45.74 54.9023 45.58C55.3823 45.42 55.6823 45.32 55.8023 45.28L57.4823 50.32L56.7023 50.62C56.1823 50.82 55.4423 51.06 54.4823 51.34C53.5623 51.58 52.4423 51.8 51.1223 52C49.8423 52.24 48.4223 52.36 46.8623 52.36C41.5023 52.36 37.4623 50.66 34.7423 47.26C32.0623 43.82 30.7223 38.8 30.7223 32.2C30.7223 29.04 31.0823 26.16 31.8023 23.56C32.5223 20.92 33.6023 18.66 35.0423 16.78C36.5223 14.9 38.3623 13.44 40.5623 12.4C42.8023 11.36 45.4223 10.84 48.4223 10.84C50.8223 10.84 52.7823 11.28 54.3023 12.16C55.8623 13.04 57.1223 14.04 58.0823 15.16L54.4223 19.54ZM79.0069 10.84C82.0069 10.84 84.5669 11.32 86.6869 12.28C88.8069 13.24 90.5469 14.6 91.9069 16.36C93.3069 18.12 94.3269 20.28 94.9669 22.84C95.6069 25.36 95.9269 28.2 95.9269 31.36C95.9269 34.48 95.5669 37.34 94.8469 39.94C94.1669 42.5 93.0869 44.7 91.6069 46.54C90.1669 48.38 88.3269 49.82 86.0869 50.86C83.8869 51.86 81.2669 52.36 78.2269 52.36C75.2269 52.36 72.6469 51.92 70.4869 51.04C68.3669 50.12 66.6069 48.8 65.2069 47.08C63.8469 45.32 62.8469 43.2 62.2069 40.72C61.5669 38.24 61.2469 35.4 61.2469 32.2C61.2469 29.08 61.5869 26.22 62.2669 23.62C62.9869 20.98 64.0669 18.72 65.5069 16.84C66.9869 14.92 68.8469 13.44 71.0869 12.4C73.3269 11.36 75.9669 10.84 79.0069 10.84ZM78.1669 16.36C76.4069 16.36 74.9469 16.76 73.7869 17.56C72.6269 18.32 71.6869 19.38 70.9669 20.74C70.2469 22.1 69.7269 23.7 69.4069 25.54C69.1269 27.38 68.9869 29.38 68.9869 31.54C68.9869 33.58 69.1269 35.52 69.4069 37.36C69.6869 39.2 70.1869 40.82 70.9069 42.22C71.6669 43.62 72.6869 44.74 73.9669 45.58C75.2869 46.42 76.9869 46.84 79.0669 46.84C80.7869 46.84 82.2269 46.46 83.3869 45.7C84.5869 44.94 85.5469 43.9 86.2669 42.58C86.9869 41.26 87.4869 39.7 87.7669 37.9C88.0869 36.06 88.2469 34.08 88.2469 31.96C88.2469 29.92 88.1069 27.96 87.8269 26.08C87.5469 24.2 87.0269 22.54 86.2669 21.1C85.5469 19.66 84.5269 18.52 83.2069 17.68C81.9269 16.8 80.2469 16.36 78.1669 16.36Z" fill="#0D3541"/>
<path d="M4.56828 52.5C4.56828 51.82 4.69828 51.18 4.95828 50.58C5.21828 49.98 5.56828 49.46 6.00828 49.02C6.46828 48.56 6.98828 48.2 7.56828 47.94C8.16828 47.68 8.80828 47.55 9.48828 47.55C10.1683 47.55 10.8083 47.68 11.4083 47.94C12.0083 48.2 12.5283 48.56 12.9683 49.02C13.4283 49.46 13.7883 49.98 14.0483 50.58C14.3083 51.18 14.4383 51.82 14.4383 52.5C14.4383 53.18 14.3083 53.83 14.0483 54.45C13.7883 55.05 13.4383 55.58 12.9983 56.04C12.5583 56.48 12.0383 56.83 11.4383 57.09C10.8583 57.37 10.2283 57.51 9.54828 57.51C8.86828 57.51 8.21828 57.37 7.59828 57.09C6.99828 56.83 6.46828 56.48 6.00828 56.04C5.56828 55.58 5.21828 55.05 4.95828 54.45C4.69828 53.83 4.56828 53.18 4.56828 52.5Z" fill="#0D3541"/>
</svg>
