<svg width="197" height="52" viewBox="0 0 197 52" fill="none" xmlns="http://www.w3.org/2000/svg">
<g filter="url(#filter0_d_54_525)">
<path d="M152 43V1H164V19.5L174.5 1H188L183.5 8.5L180.5 13.5C180.5 13.5 178.5 16.5 178 17L175 20C174.5 20.5 173 21.5 172 21.5C171 21.5 168 22 168 22C168 22 171.5 22 172.5 22.5L174.5 23.5C174.5 23.5 176.5 25 177 25.5C177.5 26 180 29 180 29L184 35L188.5 43H175L164 24.5V43H152Z" fill="#2A9D8F"/>
<path d="M114 43V1H134.5L137.5 1.5C137.5 1.5 140 2 141 2.5C142 3 144 4.5 145 5.5C146 6.5 147 8.5 147.5 9.5C147.5 9.5 148.5 11.5 148.5 12.5V20C148.5 21 147 24 147 24L146 25.5C145 27 144.5 27 143.5 28C142.5 29 141 29.5 141 29.5C141 29.5 139.5 30 138.5 30H135.5L138.5 30.5H142.5L144.5 34.5C145 35.5 146.5 38 146.5 38L149 43H145H135L130 32.5H126V43H114Z" fill="url(#paint0_linear_54_525)"/>
<path d="M125.5 22V11.5H133C133 11.5 134.5 12 135 12.5C135.5 13 136 13.5 136.5 14.5C137 15.5 137 18 136.5 19C136 20 135 21 135 21C135 21 133.5 22 133 22H125.5Z" fill="#EDEDEB"/>
<path d="M40.5 43V1H61L64 1.5C64 1.5 66.5 2 67.5 2.5C68.5 3 70 4 70.5 4.5C71 5 72 5.5 73 7C74 8.5 74.5 9.5 74.5 9.5C74.5 9.5 75.5 12 75.5 13.5V20C75.5 21 74.5 24 74.5 24L74 25C74 25 73 27 72 28C71 29 69.5 30.5 68.5 31L66.5 32C65.5 32.5 63 32.5 63 32.5H55C55 32.5 53.5 32.5 52.5 32C51.5 31.5 51 31 50.5 30.5C50 30 49 28.5 49 28.5L47.5 26C47.5 26 48 27.5 48.5 28.5L49 29.5C49 29.5 50.5 31.5 51 32C51.5 32.5 53 33 53 33V43H40.5Z" fill="#243F59"/>
<path d="M112 43L92 1L72 43H84.5L93 25L87 43H112Z" fill="#264653"/>
<path d="M53 22V11.5C53 11.5 59 11.5 60 12L62 13C62 13 63 14 63.5 15C64 16 64 18 63.5 19C63 20 61.5 21 61.5 21C61.5 21 59.5 22 59 22H53Z" fill="#EEEEEC"/>
<path d="M36.5 8.5L26.5 15L24.5 13.5L22.5 12.5C22.5 12.5 20 11.5 19.5 11.5H17H14C14 11.5 13 12 13 12.5C13 13 13 13.5 13.5 14C14 14.5 17 15 17 15L20 15.5L24 16.5C24 16.5 27 17.5 28 18C29 18.5 30.5 19 31.5 19.5C32.5 20 34 21 35 22C36 23 36 23.5 36.5 24.5C37 25.5 37 25.5 37.5 27.5C38 29.5 38 32 37.5 33.5C37 35 36.5 36 36 37C35.5 38 34.5 39 34 39.5C33.5 40 32.5 41 31.5 41.5C30.5 42 30 42 29 42.5C28 43 25.5 43.5 25.5 43.5H20.5H15C14 43.5 12 43 12 43C12 43 9 42 8 41.5C7 41 5.5 40 4.5 39L2 36.5C1 35.5 0 33.5 0 33.5L10.5 27.5L12 29C12 29 13 30 14 30.5L17 32C18 32.5 22 32 22 32C22 32 23.5 31.5 24 31C24.5 30.5 24.5 30.5 24 30C23.5 29.5 22.5 29 22.5 29C21.5 28.5 15.5 27.5 14 27L11 26L8.5 25L5.5 23.5C4.5 23 3.5 21.5 3.5 21.5C3.5 21.5 2 19.5 1.5 18.5C1 17.5 0.5 15.5 0.5 14.5C0.5 13.5 1 10.5 1.5 9.5L3 6.5C3 6.5 5 4 6.5 3C8 2 11 1 11 1C11 1 14 0 15 0H23C24 0 25.5 0.5 25.5 0.5C25.5 0.5 29 2 30 2.5C31 3 32 3.5 33 4.5C34 5.5 36.5 8.5 36.5 8.5Z" fill="#243F59"/>
</g>
<defs>
<filter id="filter0_d_54_525" x="0" y="0" width="196.5" height="51.5" filterUnits="userSpaceOnUse" color-interpolation-filters="sRGB">
<feFlood flood-opacity="0" result="BackgroundImageFix"/>
<feColorMatrix in="SourceAlpha" type="matrix" values="0 0 0 0 0 0 0 0 0 0 0 0 0 0 0 0 0 0 127 0" result="hardAlpha"/>
<feOffset dx="4" dy="4"/>
<feGaussianBlur stdDeviation="2"/>
<feComposite in2="hardAlpha" operator="out"/>
<feColorMatrix type="matrix" values="0 0 0 0 0 0 0 0 0 0 0 0 0 0 0 0 0 0 0.25 0"/>
<feBlend mode="normal" in2="BackgroundImageFix" result="effect1_dropShadow_54_525"/>
<feBlend mode="normal" in="SourceGraphic" in2="effect1_dropShadow_54_525" result="shape"/>
</filter>
<linearGradient id="paint0_linear_54_525" x1="145" y1="19" x2="121.5" y2="31.5" gradientUnits="userSpaceOnUse">
<stop stop-color="#2A9D8F"/>
<stop offset="0.89429" stop-color="#264653"/>
</linearGradient>
</defs>
</svg>
